<svg width="24" height="24" viewBox="0 0 24 24" fill="none" xmlns="http://www.w3.org/2000/svg">
<g clip-path="url(#clip0_3_116)">
<path d="M12.0057 6.6094C8.59853 6.6094 5.85032 9.01409 5.85032 11.9953C5.85032 14.9766 8.59853 17.3813 12.0057 17.3813C15.4128 17.3813 18.161 14.9766 18.161 11.9953C18.161 9.01409 15.4128 6.6094 12.0057 6.6094ZM12.0057 15.4969C9.80389 15.4969 8.00389 13.9266 8.00389 11.9953C8.00389 10.0641 9.79853 8.49377 12.0057 8.49377C14.2128 8.49377 16.0075 10.0641 16.0075 11.9953C16.0075 13.9266 14.2075 15.4969 12.0057 15.4969ZM19.8485 6.38909C19.8485 7.08752 19.2057 7.64534 18.4128 7.64534C17.6146 7.64534 16.9771 7.08284 16.9771 6.38909C16.9771 5.69534 17.62 5.13284 18.4128 5.13284C19.2057 5.13284 19.8485 5.69534 19.8485 6.38909ZM23.9253 7.66409C23.8342 5.98127 23.395 4.49065 21.986 3.26252C20.5825 2.0344 18.8789 1.65002 16.9557 1.56565C14.9735 1.46721 9.03246 1.46721 7.05032 1.56565C5.13246 1.64534 3.42889 2.02971 2.01997 3.25784C0.611039 4.48596 0.177111 5.97659 0.0806823 7.6594C-0.0318176 9.39377 -0.0318176 14.5922 0.0806823 16.3266C0.171754 18.0094 0.611039 19.5 2.01997 20.7281C3.42889 21.9563 5.12711 22.3406 7.05032 22.425C9.03246 22.5235 14.9735 22.5235 16.9557 22.425C18.8789 22.3453 20.5825 21.961 21.986 20.7281C23.3896 19.5 23.8289 18.0094 23.9253 16.3266C24.0378 14.5922 24.0378 9.39846 23.9253 7.66409ZM21.3646 18.1875C20.9467 19.1063 20.1378 19.8141 19.0825 20.1844C17.5021 20.7328 13.7521 20.6063 12.0057 20.6063C10.2592 20.6063 6.50389 20.7281 4.92889 20.1844C3.87889 19.8188 3.06997 19.111 2.64675 18.1875C2.01997 16.8047 2.16461 13.5235 2.16461 11.9953C2.16461 10.4672 2.02532 7.18127 2.64675 5.80315C3.06461 4.8844 3.87354 4.17659 4.92889 3.80627C6.50925 3.25784 10.2592 3.3844 12.0057 3.3844C13.7521 3.3844 17.5075 3.26252 19.0825 3.80627C20.1325 4.1719 20.9414 4.87971 21.3646 5.80315C21.9914 7.18596 21.8467 10.4672 21.8467 11.9953C21.8467 13.5235 21.9914 16.8094 21.3646 18.1875Z" fill="black"/>
</g>
<defs>
<clipPath id="clip0_3_116">
<rect width="24" height="24" fill="white"/>
</clipPath>
</defs>
</svg>
