<svg width="76" height="76" viewBox="0 0 76 76" fill="none" xmlns="http://www.w3.org/2000/svg">
<circle cx="38" cy="38" r="38" fill="#FF5C00"/>
<path d="M41.7374 54.608C43.7007 54.608 45.5437 54.323 47.2664 53.753C49.0017 53.183 50.4837 52.4483 51.7124 51.549L49.5274 47.331C48.5774 48.091 47.45 48.68 46.1454 49.098C44.8407 49.516 43.4664 49.725 42.0224 49.725C39.7424 49.725 37.7094 49.2247 35.9234 48.224C34.1374 47.2107 32.7314 45.849 31.7054 44.139C30.6794 42.4163 30.1664 40.4847 30.1664 38.344C30.1664 36.2033 30.6794 34.278 31.7054 32.568C32.7314 30.8453 34.1374 29.4837 35.9234 28.483C37.7094 27.4697 39.7424 26.963 42.0224 26.963C43.4664 26.963 44.8407 27.172 46.1454 27.59C47.45 28.008 48.5774 28.597 49.5274 29.357L51.7124 25.139C50.4457 24.2143 48.9447 23.4733 47.2094 22.916C45.474 22.3587 43.6374 22.08 41.6994 22.08C39.3434 22.08 37.1394 22.498 35.0874 23.334C33.048 24.1573 31.2494 25.31 29.6914 26.792C28.146 28.274 26.9364 30.003 26.0624 31.979C25.1884 33.9423 24.7514 36.064 24.7514 38.344C24.7514 40.624 25.1884 42.752 26.0624 44.728C26.9364 46.6913 28.146 48.414 29.6914 49.896C31.2494 51.378 33.0544 52.537 35.1064 53.373C37.1584 54.1963 39.3687 54.608 41.7374 54.608Z" fill="#F9FAFB"/>
</svg>
